<?xml version="1.0" ?><svg data-name="图层 1" id="图层_1" viewBox="0 0 500 500" xmlns="http://www.w3.org/2000/svg"><defs><style>.cls-1{fill:none;}.cls-2{fill:#231815;}</style></defs><title/><path class="cls-1" d="M336.56,141.36c-.62,1.22-1.28,2.42-2,3.58a53.73,53.73,0,0,1-14.6,15.19,44.5,44.5,0,0,1-5.27,3.16,53.27,53.27,0,0,1,11.13,7.79,50.32,50.32,0,0,1,10.71,14l.59-1.07a51.18,51.18,0,0,1,13.39-15.6,51.92,51.92,0,0,1,8-5.19A52.5,52.5,0,0,1,336.56,141.36Z"/><path class="cls-1" d="M382.67,277.11a129.72,129.72,0,0,1-29.15,4.06,59.67,59.67,0,0,1,9,20.22A120.94,120.94,0,0,0,382.67,277.11Z"/><path class="cls-1" d="M231.07,205.81a132.45,132.45,0,0,1-8.38-88.66,116.93,116.93,0,0,0-50.72,68,114.58,114.58,0,0,0-2.22,49.54,70.17,70.17,0,0,1,10.64,1.6A82.66,82.66,0,0,1,231.07,205.81Z"/><path class="cls-2" d="M336.53,195.64c4.86,0,4.53,1,3.54-2.06a58.94,58.94,0,0,0-2.25-5.77c-.41-.92-.85-1.82-1.31-2.72-1.54,2.8-3.32,6.16-3.73,9.17C332.43,196.79,330.63,195.64,336.53,195.64Z"/><path class="cls-2" d="M363.59,160.93c-1.07.42-2.13.87-3.18,1.35-.66.3-1.29.63-1.92,1a54.16,54.16,0,0,0,10.4,4.2A6.79,6.79,0,0,1,363.59,160.93Z"/><path class="cls-2" d="M367.51,159.52a10.46,10.46,0,0,0-2,.68c-.64.23-1.27.48-1.9.73a6.79,6.79,0,0,0,5.3,6.51C365.56,166.54,373.1,158.85,367.51,159.52Z"/><path class="cls-2" d="M304.17,159.13v4.15q-2,5.08.69,4c1.37,0,3.4-1.11,4.7-1.63q2.61-1,5.1-2.31A54.13,54.13,0,0,0,306.9,160,10.81,10.81,0,0,0,304.17,159.13Z"/><path class="cls-2" d="M340.68,130.92h-8.31l.4,1.38a15.22,15.22,0,0,0,1.17,3.36,53.92,53.92,0,0,0,2.62,5.71,62,62,0,0,0,2.55-5.71C339.6,134.39,340.69,132.33,340.68,130.92Z"/><path class="cls-2" d="M308.83,177.13A37.86,37.86,0,0,1,319,185.67a36.14,36.14,0,0,1,5.86,9.89c1.78,4.51,2.41,8.91,7.44,11a10.65,10.65,0,0,0,12.16-2.72c2.78-3.21,3.23-7.95,5.2-11.66,4.73-8.91,12.35-14.94,21.79-18.22,4.62-1.6,8.37-4,9.08-9.27a10.71,10.71,0,0,0-7.7-11.75c9.28,2.66,5.31,17.13-4,14.46a54.16,54.16,0,0,1-10.4-4.2,51.92,51.92,0,0,0-8,5.19A51.18,51.18,0,0,0,337.1,184l-.59,1.07c.46.9.91,1.8,1.31,2.72a58.94,58.94,0,0,1,2.25,5.77c1,3.07,1.32,2.06-3.54,2.06-5.9,0-4.1,1.15-3.76-1.38.41-3,2.19-6.37,3.73-9.17a50.32,50.32,0,0,0-10.71-14,53.27,53.27,0,0,0-11.13-7.79q-2.49,1.28-5.1,2.31c-1.3.52-3.33,1.67-4.7,1.63q-2.69,1.13-.69-4v-4.15a10.81,10.81,0,0,1,2.74.83,54.13,54.13,0,0,1,7.76,3.33,44.5,44.5,0,0,0,5.27-3.16,53.73,53.73,0,0,0,14.6-15.19c.74-1.16,1.4-2.36,2-3.58a53.92,53.92,0,0,1-2.62-5.71,15.22,15.22,0,0,1-1.17-3.36l-.4-1.38h8.31c0,1.41-1.08,3.47-1.57,4.73a62,62,0,0,1-2.55,5.71,52.5,52.5,0,0,0,21.93,21.87c.63-.33,1.27-.66,1.92-1,1-.48,2.11-.92,3.18-1.35-.19-4.58,3.52-9.51,9.29-8a37.08,37.08,0,0,1-21-15c-4.31-6.59-5-18.48-14.87-18.87-10.58-.41-11.3,12.07-15.76,18.87a37.25,37.25,0,0,1-19.66,14.61c-4.12,1.38-7.58,3.31-8.83,7.84a10.73,10.73,0,0,0,5.19,12.21C301.37,174.53,305.35,175.14,308.83,177.13Z"/><path class="cls-2" d="M363.59,160.93c.63-.25,1.26-.5,1.9-.73a10.46,10.46,0,0,1,2-.68c5.59-.67-2,7,1.38,7.91,9.3,2.66,13.27-11.81,4-14.46C367.11,151.42,363.4,156.34,363.59,160.93Z"/><path class="cls-2" d="M169.75,234.71A114.58,114.58,0,0,1,172,185.16a116.93,116.93,0,0,1,50.72-68,127.81,127.81,0,0,1,5.81-17.37l11,8.47a122.32,122.32,0,0,0-16.83,8.9,132.45,132.45,0,0,0,8.38,88.66,81.83,81.83,0,0,1,16.06-1.22A118.55,118.55,0,0,1,243,103.77c2.86-6.84-5.89-10.69-11-8.47a131.16,131.16,0,0,0-77.56,140A71.06,71.06,0,0,1,169.75,234.71Z"/><path class="cls-2" d="M396,256.84a119.44,119.44,0,0,1-58.27,8.65,60.7,60.7,0,0,1,15.76,15.69,129.72,129.72,0,0,0,29.15-4.06,123.49,123.49,0,0,0,8.88-16.83l8.47,11a127.83,127.83,0,0,1-17.35,5.81,120.94,120.94,0,0,1-20.14,24.29,57.15,57.15,0,0,1,1.27,18.43,131.73,131.73,0,0,0,40.71-52C406.71,262.77,402.86,254,396,256.84Z"/><path class="cls-2" d="M228.5,99.78a127.81,127.81,0,0,0-5.81,17.37,122.32,122.32,0,0,1,16.83-8.9Z"/><path class="cls-2" d="M391.56,260.29a123.49,123.49,0,0,1-8.88,16.83A127.83,127.83,0,0,0,400,271.31Z"/><path class="cls-2" d="M314.08,260.56a117.75,117.75,0,0,0,23.7,4.93,58.77,58.77,0,0,0-16.87-7.93c.54,1.41,1,2.84,1.51,4.28l-5.24-5.24c1.26.27,2.5.6,3.73,1-10-26.34-33.17-46.79-61.3-51.74a83.11,83.11,0,0,0-12.49-1.23q2,3.9,4.41,7.66A73.75,73.75,0,0,1,314.08,260.56Z"/><path class="cls-2" d="M102,304.07a62.23,62.23,0,0,1,53.69-61.64q-.74-3.56-1.27-7.16a69.73,69.73,0,0,0-51.27,35.13c-15.16,27.65-9.62,63.37,13.66,84.79A70.91,70.91,0,0,0,164.2,373.8c4.86.05,7.27-3.72,7.24-7.5H164.2A62.23,62.23,0,0,1,102,304.07Z"/><path class="cls-2" d="M304.85,366.3h-7.24c0,3.78,2.36,7.56,7.24,7.5a59.9,59.9,0,0,0,58.79-52.34c.07-.55.11-1.09.16-1.63q-4.11,3.15-8.45,6A51.76,51.76,0,0,1,304.85,366.3Z"/><path class="cls-2" d="M322.42,261.84c-.46-1.45-1-2.87-1.51-4.28-1.23-.35-2.47-.68-3.73-1Z"/><path class="cls-2" d="M185.37,237.63c-1.65-.51-3.31-.94-5-1.32q-1.82,2.31-3.49,4.77Z"/><path class="cls-2" d="M234.49,212.66q-1.81-3.38-3.42-6.85a82.66,82.66,0,0,0-50.67,30.49c1.67.38,3.33.81,5,1.32l-8.47,3.45q1.67-2.46,3.49-4.77a70.17,70.17,0,0,0-10.64-1.6q.66,3.8,1.56,7.54a62.19,62.19,0,0,1,12.07,2.62A73.7,73.7,0,0,1,234.49,212.66Z"/><path class="cls-2" d="M344.3,281.08A51.52,51.52,0,0,1,356,307q3.35-2.67,6.49-5.58a59.67,59.67,0,0,0-9-20.22Q348.91,281.29,344.3,281.08Z"/><path class="cls-2" d="M315.19,263.84a51.71,51.71,0,0,1,29.11,17.24q4.61.21,9.23.1a60.7,60.7,0,0,0-15.76-15.69,117.75,117.75,0,0,1-23.7-4.93C314.47,261.64,314.85,262.73,315.19,263.84Z"/><path class="cls-2" d="M362.53,301.4q-3.14,2.91-6.49,5.58a51.55,51.55,0,0,1-.68,18.83q4.34-2.82,8.45-6A57.15,57.15,0,0,0,362.53,301.4Z"/><path class="cls-2" d="M164.2,241.83a62.4,62.4,0,0,1,7.11.41q-.9-3.74-1.56-7.54a71.06,71.06,0,0,0-15.37.56q.54,3.6,1.27,7.16A62.67,62.67,0,0,1,164.2,241.83Z"/><path class="cls-2" d="M231.07,205.81q1.61,3.47,3.42,6.85a74.24,74.24,0,0,1,10.28-.72c2.28,0,4.54.11,6.76.32q-2.35-3.76-4.41-7.66A81.83,81.83,0,0,0,231.07,205.81Z"/><path class="cls-2" d="M181.39,252.09c3.34,1,6.63-.74,8.47-3.45a67.4,67.4,0,0,1,48.69-28.94q-2.14-3.46-4.05-7a73.7,73.7,0,0,0-51.11,32.2,62.19,62.19,0,0,0-12.07-2.62q1,4,2.22,8A60.47,60.47,0,0,1,181.39,252.09Z"/><path class="cls-2" d="M164.2,358.8c-24.5-.27-46.36-16.6-52.84-40.4A55.22,55.22,0,0,1,137,256.59a53.43,53.43,0,0,1,20.47-6.75q-1-3.67-1.77-7.4A62.23,62.23,0,0,0,164.2,366.3h7.24C171.41,362.58,169,358.86,164.2,358.8Z"/><path class="cls-2" d="M355.35,325.81q-4.67,3-9.6,5.68a45.18,45.18,0,0,1-40.91,27.31c-4.78.06-7.2,3.78-7.24,7.5h7.24A51.76,51.76,0,0,0,355.35,325.81Z"/><path class="cls-2" d="M304.42,257q4.76,2,9.66,3.55a73.75,73.75,0,0,0-62.55-48.3q2.68,4.28,5.76,8.35A67.11,67.11,0,0,1,304.42,257Z"/><path class="cls-2" d="M332.06,280a44.32,44.32,0,0,1,17,32.17q3.59-2.44,7-5.14a51.52,51.52,0,0,0-11.74-25.9Q338.16,280.8,332.06,280Z"/><path class="cls-2" d="M173.53,250.24q-1.25-4-2.22-8a61.52,61.52,0,0,0-15.65.19q.77,3.73,1.77,7.4A57,57,0,0,1,173.53,250.24Z"/><path class="cls-2" d="M257,220.55l.28.06q-3.07-4.07-5.76-8.35c-2.23-.2-4.48-.32-6.76-.32a74.24,74.24,0,0,0-10.28.72q1.92,3.58,4.05,7A63.35,63.35,0,0,1,257,220.55Z"/><path class="cls-2" d="M308,265.83a7.54,7.54,0,0,0,5.24,5.24A46.32,46.32,0,0,1,332.06,280q6.09.84,12.24,1.12a51.71,51.71,0,0,0-29.11-17.24c-.34-1.11-.72-2.2-1.11-3.28q-4.9-1.56-9.66-3.55A66.57,66.57,0,0,1,308,265.83Z"/><path class="cls-2" d="M348.8,320.1a43,43,0,0,1-3,11.39q4.92-2.64,9.6-5.68A51.55,51.55,0,0,0,356,307q-3.39,2.7-7,5.14A43.89,43.89,0,0,1,348.8,320.1Z"/><path class="cls-2" d="M192.11,334.15c-1.45-3.78-5-6.39-9.23-5.24-3.61,1-6.7,5.42-5.24,9.23l7.37,19.2c1.45,3.78,5,6.39,9.23,5.24,3.61-1,6.7-5.42,5.24-9.23Zm-7.23,2,7.37,19.2Z"/><path class="cls-2" d="M210.71,405.46c3.62-1,6.7-5.42,5.24-9.23L208.58,377c-1.45-3.78-5-6.39-9.23-5.24-3.61,1-6.7,5.42-5.24,9.23l7.37,19.2C202.94,404,206.53,406.61,210.71,405.46Zm-2-7.23L201.34,379Z"/><path class="cls-2" d="M219.11,329.68c-2.78,1.69-4.73,5.29-3.51,8.46l7.37,19.2c1.45,3.78,5,6.39,9.23,5.24,3.61-1,6.7-5.42,5.24-9.23l-6.88-17.91c-1.37-.6-2.73-1.23-4.08-1.88Q222.73,331.74,219.11,329.68Zm3.73,6.47,7.37,19.2Z"/><path class="cls-2" d="M220.84,328.91a6.87,6.87,0,0,0-1.73.77q3.62,2.06,7.38,3.89c1.35.65,2.71,1.27,4.08,1.88l-.5-1.29C228.62,330.37,225,327.76,220.84,328.91Z"/><path class="cls-2" d="M239.45,400.22c1.45,3.78,5,6.39,9.23,5.24,3.61-1,6.7-5.42,5.24-9.23L246.54,377c-1.45-3.78-5-6.39-9.23-5.24-3.61,1-6.7,5.42-5.24,9.23Zm7.23-2L239.31,379Z"/><path class="cls-2" d="M258.8,328.91l-.26.09q3.36.74,6.75,1.3A7,7,0,0,0,258.8,328.91Z"/><path class="cls-2" d="M268.17,355.34l-3.86-10.06q-4.33-.66-8.62-1.61l5.25,13.66c1.45,3.78,5,6.39,9.23,5.24,3.61-1,6.7-5.42,5.24-9.23l-2.71-7.05q-4.21-.37-8.39-1Z"/><path class="cls-2" d="M265.29,330.3q-3.39-.55-6.75-1.3c-3.5,1.13-6.4,5.43-5,9.14l2.13,5.54q4.28.95,8.62,1.61l-3.51-9.14,3.51,9.14q4.18.64,8.39,1L268,334.15A9.24,9.24,0,0,0,265.29,330.3Z"/><path class="cls-2" d="M286.63,405.46c3.61-1,6.7-5.42,5.24-9.23L284.5,377c-1.45-3.78-5-6.39-9.23-5.24-3.61,1-6.7,5.42-5.24,9.23l7.37,19.2C278.86,404,282.45,406.61,286.63,405.46Zm-2-7.23L277.27,379Z"/></svg>